<?xml version="1.0" encoding="UTF-8" standalone="no"?>
<!-- Created with Inkscape (http://www.inkscape.org/) -->

<svg
   version="1.1"
   id="svg1"
   width="1617.3333"
   height="1617.3333"
   viewBox="0 0 1617.3333 1617.3333"
   sodipodi:docname="clienticon.svg"
   inkscape:version="1.4 (86a8ad7, 2024-10-11)"
   xml:space="preserve"
   inkscape:export-filename="redicon.png"
   inkscape:export-xdpi="96"
   inkscape:export-ydpi="96"
   xmlns:inkscape="http://www.inkscape.org/namespaces/inkscape"
   xmlns:sodipodi="http://sodipodi.sourceforge.net/DTD/sodipodi-0.dtd"
   xmlns="http://www.w3.org/2000/svg"
   xmlns:svg="http://www.w3.org/2000/svg"><defs
     id="defs1"><inkscape:path-effect
       effect="bspline"
       id="path-effect8"
       is_visible="true"
       lpeversion="1.3"
       weight="33.333333"
       steps="2"
       helper_size="0"
       apply_no_weight="true"
       apply_with_weight="true"
       only_selected="false"
       uniform="false" /><inkscape:path-effect
       effect="bspline"
       id="path-effect7"
       is_visible="true"
       lpeversion="1.3"
       weight="33.333333"
       steps="2"
       helper_size="0"
       apply_no_weight="true"
       apply_with_weight="true"
       only_selected="false"
       uniform="false" /><inkscape:path-effect
       effect="bspline"
       id="path-effect6"
       is_visible="true"
       lpeversion="1.3"
       weight="33.333333"
       steps="2"
       helper_size="0"
       apply_no_weight="true"
       apply_with_weight="true"
       only_selected="false"
       uniform="false" /><inkscape:path-effect
       effect="bspline"
       id="path-effect5"
       is_visible="true"
       lpeversion="1.3"
       weight="33.333333"
       steps="2"
       helper_size="0"
       apply_no_weight="true"
       apply_with_weight="true"
       only_selected="false"
       uniform="false" /><inkscape:path-effect
       effect="bspline"
       id="path-effect4"
       is_visible="true"
       lpeversion="1.3"
       weight="33.333333"
       steps="2"
       helper_size="0"
       apply_no_weight="true"
       apply_with_weight="true"
       only_selected="false"
       uniform="false" /></defs><sodipodi:namedview
     id="namedview1"
     pagecolor="#ffffff"
     bordercolor="#000000"
     borderopacity="0.25"
     inkscape:showpageshadow="2"
     inkscape:pageopacity="0.0"
     inkscape:pagecheckerboard="0"
     inkscape:deskcolor="#d1d1d1"
     inkscape:zoom="0.34192087"
     inkscape:cx="767.72149"
     inkscape:cy="761.87218"
     inkscape:window-width="1360"
     inkscape:window-height="705"
     inkscape:window-x="-8"
     inkscape:window-y="-8"
     inkscape:window-maximized="1"
     inkscape:current-layer="g1"
     showgrid="false" /><g
     inkscape:groupmode="layer"
     inkscape:label="Image"
     id="g1"><rect
       style="fill:#2c2ca0;fill-opacity:1;stroke:none;stroke-width:7.55906;stroke-linecap:round;stroke-linejoin:round"
       id="rect2"
       width="1611.484"
       height="1611.484"
       x="5.8493066"
       y="2.9246533"
       ry="228.12294" /><path
       style="fill:#000000;fill-opacity:1"
       d="M 406.5268,1453.5527 219.34899,1397.9843"
       id="path4" /><path
       id="path6"
       style="opacity:1;fill:#e6e6e6;fill-opacity:1;stroke:#e6e6e6;stroke-width:101.669;stroke-linecap:round;stroke-linejoin:round;stroke-dasharray:none;stroke-opacity:1;paint-order:normal"
       d="m 460.24137,135.0332 c -47.0113,0.0114 -90.14986,1.63262 -119.03125,2.91211 -77.01707,3.41198 -122.83559,-1.46125 -119.42383,241.28516 2.88707,205.41527 0.49025,586.50477 -1.46289,799.88863 -1.94978,213.0162 11.88785,374.6932 87.25195,301.7305 2545.40695,-2464.30117 34.21846,-108.6247 18.33189,-159.8506 -2.56393,-92.2976 0.6307,-273.2157 4.01772,-374.82712 3.41847,-102.55489 148.25239,-110.18849 205.28711,-111.66993 75.06641,-1.9498 173.52763,-38.02055 228.60937,-88.71484 55.08175,-50.6943 93.10213,-118.93597 103.82618,-191.07813 C 878.37168,482.56682 873.4975,391.90423 845.22574,332.43555 816.95399,272.96687 762.36091,186.20291 679.49527,157.44336 627.70425,139.46864 538.59352,135.01416 460.24137,135.0332 Z m -61.2311,139.29234 h 181.92647 c 5.63879,0 11.00412,1.10382 15.93159,3.05652 78.59798,10.74964 138.78358,77.78202 138.78358,159.42463 v 104.15484 c 0,79.7546 -57.43817,145.55987 -133.36434,158.58378 -6.29101,3.5845 -13.56381,5.65902 -21.35083,5.65902 H 399.01027 c -23.87068,0 -43.08531,-19.21784 -43.08531,-43.08851 V 317.41406 c 0,-23.87068 19.21463,-43.08852 43.08531,-43.08852 z"
       sodipodi:nodetypes="ssssssssssssssscsscsssss" /><path
       style="fill:#2c2ca0;fill-opacity:1;stroke:none;stroke-width:26.8072;stroke-linecap:round;stroke-linejoin:round"
       d="M 383.29806,484.03012 V 283.69137 h 103.79255 c 81.60281,0 108.23208,1.1766 124.55845,5.50351 39.73091,10.52976 76.01689,44.82854 90.64547,85.68131 6.04376,16.8782 6.76737,28.61277 6.73096,109.15393 -0.0388,85.81845 -0.43521,91.25967 -8.08533,110.98644 -9.89768,25.52236 -37.76537,57.92299 -59.74384,69.46163 -33.72755,17.70695 -51.09924,19.89069 -158.23181,19.89069 h -99.66645 z"
       id="path2" /></g></svg>
